<svg width="197.000000" height="44.132812" viewBox="0 0 197 44.1328" fill="none" xmlns="http://www.w3.org/2000/svg" xmlns:xlink="http://www.w3.org/1999/xlink">
	<desc>
			Created with Pixso.
	</desc>
	<defs/>
	<path id="Berg" d="M117.648 35.5L105.871 35.5L105.871 6.4082L117.004 6.4082C123.312 6.4082 126.438 9.62109 126.438 13.9473C126.438 17.4922 124.191 19.4746 121.35 20.1484L121.35 20.4316C124.445 20.5879 127.57 23.166 127.57 27.5703C127.57 32.1016 124.309 35.5 117.648 35.5ZM111.135 10.7539L111.135 18.7812L116.35 18.7812C119.094 18.7812 121.164 17.1895 121.164 14.6309C121.164 12.3848 119.562 10.7539 116.467 10.7539L111.135 10.7539ZM160.783 35.5L155.646 35.5L155.646 13.6836L160.627 13.6836L160.627 17.3164L160.852 17.3164C161.652 14.7871 163.742 13.3711 166.242 13.3711C166.809 13.3711 167.619 13.4297 168.088 13.5078L168.088 18.2441C167.648 18.0977 166.564 17.9414 165.695 17.9414C162.873 17.9414 160.783 19.9043 160.783 22.6777L160.783 35.5ZM151.08 29.6504C150.172 33.4395 146.675 35.9297 141.597 35.9297C135.015 35.9297 131.002 31.5645 131.002 24.7188C131.002 17.9902 135.074 13.4004 141.324 13.4004C146.695 13.4004 151.295 16.7598 151.295 24.416L151.295 25.998L136.099 25.998C136.138 29.7285 138.345 31.916 141.666 31.916C143.882 31.916 145.582 30.959 146.285 29.1035L151.08 29.6504ZM190.33 35.8516C190.33 41.4375 185.985 44.1328 180.086 44.1328C174.53 44.1328 171.395 41.6816 170.457 38.625L175.086 37.502C175.711 38.7812 177.078 40.2461 180.174 40.2461C183.104 40.2461 185.233 38.9277 185.233 35.7148L185.233 31.584L184.979 31.584C184.178 33.1855 182.43 35.1875 178.7 35.1875C173.67 35.1875 169.705 31.6328 169.705 24.5234C169.705 17.3457 173.67 13.4004 178.709 13.4004C182.557 13.4004 184.198 15.7148 184.979 17.2871L185.262 17.2871L185.262 13.6836L190.33 13.6836L190.33 35.8516ZM141.392 17.4043C138.326 17.4043 136.265 19.748 136.109 22.5312L146.363 22.5312C146.334 19.5625 144.351 17.4043 141.392 17.4043ZM174.95 24.4941C174.95 28.5078 176.737 31.1543 180.135 31.1543C183.416 31.1543 185.262 28.6543 185.262 24.4941C185.262 20.3535 183.436 17.6191 180.135 17.6191C176.707 17.6191 174.95 20.5293 174.95 24.4941ZM111.135 22.5703L111.135 31.0957L116.809 31.0957C120.627 31.0957 122.219 29.4746 122.219 27.1602C122.219 24.5625 120.197 22.5703 116.945 22.5703L111.135 22.5703Z" fill="#2993FF" fill-opacity="1.000000" fill-rule="evenodd"/>
	<path id="eye" d="M21.7871 29.1504C20.8789 32.9395 17.3828 35.4297 12.3047 35.4297C5.72266 35.4297 1.70898 31.0645 1.70898 24.2188C1.70898 17.4902 5.78125 12.9004 12.0312 12.9004C17.4023 12.9004 22.002 16.2598 22.002 23.916L22.002 25.498L6.80664 25.498C6.8457 29.2285 9.05273 31.416 12.373 31.416C14.5898 31.416 16.2891 30.459 16.9922 28.6035L21.7871 29.1504ZM67.1422 29.1504C66.234 32.9395 62.7379 35.4297 57.6598 35.4297C51.0778 35.4297 47.0641 31.0645 47.0641 24.2188C47.0641 17.4902 51.1364 12.9004 57.3864 12.9004C62.7575 12.9004 67.3571 16.2598 67.3571 23.916L67.3571 25.498L52.1618 25.498C52.2008 29.2285 54.4078 31.416 57.7282 31.416C59.945 31.416 61.6442 30.459 62.3473 28.6035L67.1422 29.1504ZM36.4666 37.6465C35.2264 41.123 32.9119 43.1836 28.908 43.1836C27.5018 43.1836 26.2518 42.9297 25.5584 42.6465L26.7498 38.6328C28.9959 39.2871 30.4998 39.1211 31.4471 36.6309L31.8865 35.459L23.9764 13.1836L29.4354 13.1836L34.4647 29.6582L34.6893 29.6582L39.7283 13.1836L45.1971 13.1836L36.4666 37.6465ZM12.0996 16.9043C9.0332 16.9043 6.97266 19.248 6.81641 22.0312L17.0703 22.0312C17.041 19.0625 15.0586 16.9043 12.0996 16.9043ZM57.4547 16.9043C54.3883 16.9043 52.3278 19.248 52.1715 22.0312L62.4254 22.0312C62.3961 19.0625 60.4137 16.9043 57.4547 16.9043Z" fill="#2993FF" fill-opacity="1.000000" fill-rule="evenodd"/>
	<path id="path" d="M70 14.1853L86.5 5L103 14.1853L103 22.561L86.5 13.2361L76.561 18.8477L93.6191 28.8706L86.5 32.7793L70 23.3706L70 25.1016L86.5 34.7056L96.6904 28.8706L79.5762 18.8477L86.5 14.967L103 24.3477L103 33.198L86.5 42.9695L70 33.198L70 14.1853Z" fill="#2993FF" fill-opacity="1.000000" fill-rule="nonzero"/>
</svg>
